<mxfile host="app.diagrams.net" agent="Mozilla/5.0 (Windows NT 10.0; Win64; x64) AppleWebKit/537.36 (KHTML, like Gecko) Chrome/131.0.0.0 Safari/537.36" version="25.0.3">
  <diagram id="hsFCuQBFhZfwDaCSW3ba" name="PÃ¡gina-1">
    <mxGraphModel dx="2022" dy="622" grid="1" gridSize="10" guides="1" tooltips="1" connect="1" arrows="1" fold="1" page="1" pageScale="1" pageWidth="827" pageHeight="1169" math="0" shadow="0">
      <root>
        <mxCell id="0" />
        <mxCell id="1" parent="0" />
        <mxCell id="NuM3wbn0oi2ogvwuzT14-3" style="edgeStyle=orthogonalEdgeStyle;rounded=0;orthogonalLoop=1;jettySize=auto;html=1;" edge="1" parent="1" source="NuM3wbn0oi2ogvwuzT14-1" target="NuM3wbn0oi2ogvwuzT14-2">
          <mxGeometry relative="1" as="geometry" />
        </mxCell>
        <mxCell id="NuM3wbn0oi2ogvwuzT14-1" value="Actor" style="shape=umlActor;verticalLabelPosition=bottom;verticalAlign=top;html=1;outlineConnect=0;" vertex="1" parent="1">
          <mxGeometry x="-90" y="260" width="30" height="60" as="geometry" />
        </mxCell>
        <mxCell id="NuM3wbn0oi2ogvwuzT14-5" style="edgeStyle=orthogonalEdgeStyle;rounded=0;orthogonalLoop=1;jettySize=auto;html=1;exitX=1;exitY=0.25;exitDx=0;exitDy=0;entryX=0;entryY=0.25;entryDx=0;entryDy=0;" edge="1" parent="1" source="NuM3wbn0oi2ogvwuzT14-2" target="NuM3wbn0oi2ogvwuzT14-4">
          <mxGeometry relative="1" as="geometry" />
        </mxCell>
        <mxCell id="NuM3wbn0oi2ogvwuzT14-6" value="Request" style="edgeLabel;html=1;align=center;verticalAlign=middle;resizable=0;points=[];" vertex="1" connectable="0" parent="NuM3wbn0oi2ogvwuzT14-5">
          <mxGeometry y="-2" relative="1" as="geometry">
            <mxPoint as="offset" />
          </mxGeometry>
        </mxCell>
        <mxCell id="NuM3wbn0oi2ogvwuzT14-2" value="Navegador Web&lt;br&gt;www.google.com" style="rounded=0;whiteSpace=wrap;html=1;" vertex="1" parent="1">
          <mxGeometry x="30" y="260" width="120" height="60" as="geometry" />
        </mxCell>
        <mxCell id="NuM3wbn0oi2ogvwuzT14-10" style="edgeStyle=orthogonalEdgeStyle;rounded=0;orthogonalLoop=1;jettySize=auto;html=1;exitX=0;exitY=0.75;exitDx=0;exitDy=0;entryX=1;entryY=0.75;entryDx=0;entryDy=0;" edge="1" parent="1" source="NuM3wbn0oi2ogvwuzT14-4" target="NuM3wbn0oi2ogvwuzT14-2">
          <mxGeometry relative="1" as="geometry" />
        </mxCell>
        <mxCell id="NuM3wbn0oi2ogvwuzT14-11" value="Response" style="edgeLabel;html=1;align=center;verticalAlign=middle;resizable=0;points=[];" vertex="1" connectable="0" parent="NuM3wbn0oi2ogvwuzT14-10">
          <mxGeometry x="-0.05" y="3" relative="1" as="geometry">
            <mxPoint as="offset" />
          </mxGeometry>
        </mxCell>
        <mxCell id="NuM3wbn0oi2ogvwuzT14-4" value="Servidor x" style="rounded=0;whiteSpace=wrap;html=1;" vertex="1" parent="1">
          <mxGeometry x="270" y="260" width="120" height="60" as="geometry" />
        </mxCell>
        <mxCell id="NuM3wbn0oi2ogvwuzT14-9" style="edgeStyle=orthogonalEdgeStyle;rounded=0;orthogonalLoop=1;jettySize=auto;html=1;exitX=0;exitY=1;exitDx=0;exitDy=-15;exitPerimeter=0;entryX=1;entryY=0.75;entryDx=0;entryDy=0;" edge="1" parent="1" source="NuM3wbn0oi2ogvwuzT14-7" target="NuM3wbn0oi2ogvwuzT14-4">
          <mxGeometry relative="1" as="geometry" />
        </mxCell>
        <mxCell id="NuM3wbn0oi2ogvwuzT14-7" value="Base de datos" style="shape=cylinder3;whiteSpace=wrap;html=1;boundedLbl=1;backgroundOutline=1;size=15;" vertex="1" parent="1">
          <mxGeometry x="520" y="250" width="60" height="80" as="geometry" />
        </mxCell>
        <mxCell id="NuM3wbn0oi2ogvwuzT14-8" style="edgeStyle=orthogonalEdgeStyle;rounded=0;orthogonalLoop=1;jettySize=auto;html=1;exitX=1;exitY=0.25;exitDx=0;exitDy=0;entryX=0;entryY=0;entryDx=0;entryDy=27.5;entryPerimeter=0;" edge="1" parent="1" source="NuM3wbn0oi2ogvwuzT14-4" target="NuM3wbn0oi2ogvwuzT14-7">
          <mxGeometry relative="1" as="geometry" />
        </mxCell>
        <mxCell id="NuM3wbn0oi2ogvwuzT14-12" value="" style="endArrow=none;html=1;rounded=0;" edge="1" parent="1">
          <mxGeometry width="50" height="50" relative="1" as="geometry">
            <mxPoint x="210" y="440" as="sourcePoint" />
            <mxPoint x="210" y="140" as="targetPoint" />
          </mxGeometry>
        </mxCell>
        <mxCell id="NuM3wbn0oi2ogvwuzT14-13" value="" style="endArrow=none;html=1;rounded=0;" edge="1" parent="1">
          <mxGeometry width="50" height="50" relative="1" as="geometry">
            <mxPoint x="460" y="450" as="sourcePoint" />
            <mxPoint x="460" y="150" as="targetPoint" />
          </mxGeometry>
        </mxCell>
        <mxCell id="NuM3wbn0oi2ogvwuzT14-14" value="Cliente" style="text;html=1;align=center;verticalAlign=middle;whiteSpace=wrap;rounded=0;" vertex="1" parent="1">
          <mxGeometry x="60" y="160" width="60" height="30" as="geometry" />
        </mxCell>
        <mxCell id="NuM3wbn0oi2ogvwuzT14-15" value="Servidor" style="text;html=1;align=center;verticalAlign=middle;whiteSpace=wrap;rounded=0;" vertex="1" parent="1">
          <mxGeometry x="310" y="160" width="60" height="30" as="geometry" />
        </mxCell>
        <mxCell id="NuM3wbn0oi2ogvwuzT14-16" value="Base de datos" style="text;html=1;align=center;verticalAlign=middle;whiteSpace=wrap;rounded=0;" vertex="1" parent="1">
          <mxGeometry x="530" y="160" width="60" height="30" as="geometry" />
        </mxCell>
        <mxCell id="NuM3wbn0oi2ogvwuzT14-17" value="HTML&lt;br&gt;CSS" style="rounded=1;whiteSpace=wrap;html=1;" vertex="1" parent="1">
          <mxGeometry x="50" y="360" width="80" height="60" as="geometry" />
        </mxCell>
        <mxCell id="NuM3wbn0oi2ogvwuzT14-18" value="" style="shape=image;verticalLabelPosition=bottom;labelBackgroundColor=default;verticalAlign=top;aspect=fixed;imageAspect=0;image=data:image/png,iVBORw0KGgoAAAANSUhEUgAAASsAAAEOCAIAAABep6ZmAAAgAElEQVR4Aey9B3Qcx5kuOp0mz2DyDHIGiDzIORJExmQkkiCAwWREUqQyqegkiaSDbMmWbQViEkgl27LWQSKBGQRSsr3vXe++887ed+3du3efvddre+21SBDAzHuNIkvDIUgBEEUNye7Tp09V9V9/VX1VX/9V1dXVtKPHh6mTQoBC4PNCgPZ5JUylSyFAIXD0+DDFQKoLQCHweSJAMfDzRJ8yAhQCFAMpBlIIfJ4IfAIDHzo++OiJoUePDx89MXL0uZFjJ4aok0KAQmBrCAwfOzFy9Dh5BY5NDf4nMPDo10eOfX3kkeODjz439NjJkUeOD1EnhQCFwKYIPHpi+OPz+PCxk8ZbwMCHjw899vWRYyeHjp0YPPrcvkdODj1ycvjaMzTkRu4tRtmiWGgqW4yyRbF7RPM9UszbXemPfnX40ZMb51eHH/3q8NGTHxvAT2EDSe6R/c+Hv3Tg0a+MPPzM/ltyPnSL9MDMhCmEXuiAktt1QA3AEebdrrZN5aHOTe9+LoEwS9Cx42xADcAR5t2x2oef2X8jVTD80ygPjbtVhc+S7HjoK/sefnbw0ecOPPLsgUefI+kDz530Qo99dd/R48OTDw9kKuNTs+JTdsVeOTNjUjJjSDe8ZsakwrsgHMhAARgIY10fspnalF2xpGaoBzpgdBgLZgAmHeqAd6+JuKF5KxpgLJgZ6AhL5UoOr2oOE4Ne4IBxoRcKwFxBmSuOq2jAEoULbFTNNXquZgZKfmJyNxeAdzM3mgSsFOiAAsAR5g3LBigIjBtaTOCGJQ3TE+qFMlA5VBgqBhsq1AzFoCNUHrhDQ6AYTGgj6dSQhpqWHTtgbt4Yu33cF90JA4+e3PvYyeGJB/fiDIyGIgiNQZ0UAhQCn4gAhrC6emqhDQTzMTthIDmaPDkw8WAPTscRBKNRB4UAhcCNEUAQhEajIRtHZ0/lYyeNG9y72XToJ8yFUgy8MdrUHQqBcAQoBoYjQvkpBG4nAhQDbyfaVFoUAuEIUAwMR4TyUwjcTgQoBt5OtKm0KATCEaAYGI4I5acQuJ0IUAy8nWhTaVEIhCNAMTAcEcpPIXA7EaAYeDvRptKiEAhHgGJgOCKUn0LgdiJAMfB2ok2lRSEQjgDFwHBEKD+FwO1EgGLg7USbSotCIBwBioHhiFB+CoHbiQDFwNuJNpUWhUA4AhQDwxGh/BQCtxMBioG3E20qLQqBcAQoBoYjQvkpBG4nAhQDbyfaVFoUAuEIRD4DURqC02g4guAIDaXREOr8LBBAaQiysVkJABijESTmNAynYSjpRsMbDuUHCCA0jNzlhcRuZxhFOgMRFKGhKA1BN64ITtKROj8DBBACRXAUQWkIDcURHMVoTJTGQlAcRQiMhiHUo29zBFAajpEkwlCMjpJbA273iHgGIhiO4Sj5hEEQFN0gInW99QiQXQzywDCUiSAoHWWi6MbjHSU3vMMQAkPo1Hk9AuQzC6fTEBZBw0kjeBcykMZkYZiUTRey6DwWncemc69eoYPHvhIOQkJlbnIrNHqYO9QLtN1lmkMh2igaQ8CmSwV0NgPHES6CEDhDJmDSxQTCJ1AhgQhwhIcjfNJ7xcG7GgLCw66hXhDl+uhQ2/W3QqOHuUO9kaA5no5gOIGQwJA9d2DQtmUGI94GojQ5H3/1udEffNfy+vfMP3jB9IMXTT94wfT2xnnFGxLy9gvkXSgAvSAw9EreuhrxSviLZAiIcuXuVS9QCNVC78eOjbgfC1z1hmq+4d2rGYYC12T7aq6uBF7VfL33+jyD1IHkx4hdhYi8C7S9aHrr2+Nvvmxvr9+F01g0FI9HkVcrhL9ti/qnLvn/3S3/TSf/t528yDq7Pqf8dPF+G3J+oypGSMcRlE2gCI2gYTR8W/QDO4VG9H6hKM4UM4iffXf6Q7d92WP2eUw3PkdvfOsmsa6/NerzbEUVENuK5PVJgJCwhHas8NPk4UpOLjhHll4f1jQm0TcYSNCR15tkwXZsrZtzuVe8qhde1opXtOLL5Cm6rBWtfOz9OHDjLvBec10h5UXgbqh7U3mgGaRFunVkWtdKbmRAB/MTdpfM4UYqQOBKuhsaoJvUAHVeV5brFX4csqqThJ7v1ivkOIKiDAJDaEycTmPcbQxEEFzEJv7uO8b500a/2+53WULPeZfF77H6PGa/lyTnvMfimx33uc1LLtPCjGnRZQsV/kT3nNvmO+1YmLUsnrbMeazzXoffZVlwW+EZpuHc7Oicx7TkGfPN2JZmx3wu87UCtgXX+KJnbH7G6nNa/a6P9QCFPo9lwWv1zYwuuR0Lp8bPeYbnvaY5p8nvtvmcpCqY7oLbGuZdcFt97vF5j33ea/W5LUvua7IKhMEVqPI7rQseh89tWfDaFmZsi6dI+dBzwWX54I3x7sYMhMZEEYxAiXfr+QENZ1UvDmoFQRV/vUe4ohcE1MJgFyeg56/rZasaSVAnWdMK1jX8NT0/YIgKaPgBrTioUwQ0wtDzYh8nqI5a00iCXZK/6HkBrSD07vXuiz1CMl1V3GWD+JLhGlUBjTCo4awZeOt94nWNKKgRrevDta2rRAGV+CODLNglXdeI1/SCdW1MUCcPaDgBtTioVqzreUEDd10rW9dKAlpZQC39SCcIamSrGsGagX99fkJDglpRUCsis6EVBXXin9ZHMVCcoCEohmI0+t04DrwpAxe8NpKBbsvCrG3ONep3Dy97Bpc91oUZ66LHtOAZDG1kn+hecJHt0ucePjezf9Fr8zsdix7boscGmRCmYd45ev702PJpq8855Ht11Ddj9jnJ8woB3Ga/e3TeafS5zIsex/wM2eJDVc17HWdd1oXTYz6v3TdrXXzdsXDaRj5N3JYlrz00aZAHkDpgo89pXnaNLrxm8r1mXnDb592m0HyGukmuOs2LrtFlt3Ejb445t81/eiysLJCBtM0YGOiOCuoVKzrJSp90XRsT6I4O6MRBPT+o567ouWv9vKBafFkjvqyVBA3SNX1UaJMNaIRrXTGXtfL/2isKdgsvq0UBVTipwuTXVVEXB0TrevpHe0UBdTjBgipJUKe4rJf9Uc1dNciDmnDCr+h561reej8v0MP+Sz8/oOOtakQrOsFHWiKgYQf1spUu0X+pREG9LKCX/NUgCmg5/9XLCHZK13XSoI4XlpkwL8XAa57cfo/F7yXNoN9j97nt752yP/dg56i+fF9XibW/8LWv7Q1rZzf3LrnsCyQl7D6vZcFtO+92hBLm+rjLLqvfOTHvti16h5dnzAukrbtiBkmeeMzznhGyQ+s2z7ssS6cnwhi4cGrkvMfunyEtns8zMu+ZmHfbF2Ytfs/oBs1ImwkShY7QPCy5rQuvmC447Ytu6zmvye8m6R0qAJK7wkav1e82+U9Zljxj87P2n3tM4ZJXbeCmDFzXc0gmqCQBLTtgkK5qY1e0/ICW+xdd9O+64/6kjl3TCC5qo1a1woAqasVwXSNWJ1xWcy/rGGtqUUAjWNd9gp0JaISrKl5Ax1lVcQMa0uBcc+qFQbU80CUJ9PLWdLyAVnrNXY1wTR+11qNYU/PWVOwVjXRNxw+ouEE1Z0UvCGqlawbWula4qhKukyXiXjJwAyrJql4a0Ar+po8KqmRh2sK8FAOvYeC8y0gaDY/V53IseCYfH2+WiTkoitMZ9HgF8/ix7TFwgbRpk7PfHHnnlcnF2ckllymUUde37yW36d3vTJ35lmVu1rQ4Y15y20Nl5p3WpdPTfs/4z14Z8XutZ2eMCxvm9GNizNjf+urIm1+z//Db02+8aDnzteHlMwfn3cM+9/BGl5XsQoNHAGmZr3IbOOZnzKe/af/wjQcvuGzzrw35Zm0+58c2FrIL0G/Ja3/72yNvfcd63ju15DQteK3vX8/VmzIwoGVc6pH/pyZuVS8I6NmrKkGgjfsndfS3C6WGKMQSjyy3KN6vRf6kEgRVUZd14TYwqBWt9/Av6hW/6lBc7o8N6DhhzTrcqxOv6qP/n47Ey/qYgO46BurYl7Tyv2kS19WcoIaxrruGn+sa4f/uYv26U/GbNtn/7BT9y574C93xf9XLA92cy2phQBsX7OWt9zDWtdLfdkX/sUe+0h11US++rI66qOWsddFJSocR/lovxcBrGOgHUyZuq881dvY1R09jEooiXD69sTHf3FN8+sQB2Ba35jDOeSbaKxNNhuL3XJOLHuPCBgcWvfalWcf502NXe4a2Bbdt0WNdmjVN9ZboGpPfOz2+6LEte8cWN3qPC26Qyekv2GseN9cunpme85r9ZyxLXtKo+l2WRY9tyev4yqN9aQpWqkKQHCNNiOGZ2hN9nql5z8jS6dFFj33BRXZEl2cdy7Nkuj4X2b9d9NiBkvdfMeam8t9zP7DsMV/wGufJEbJ10WNfnh1bnv3YdF84M7FApmW3GXJ7WtL9rslfekeXXRa/mzTIoecn9EI7Bb/uTnokifhvXcJVjWBdK/qoR3i6gr+LheM4h0UgxQLu/jjk152KYJckoBGHNeKgKuojvfyHNfLdEuTf+nIDqo9t4LpGuB7SxIF3XSf5d728V4b+mz56TUcKXCPWyfvH7vjHUti/0Uevd/ADGtlaiJJVjeg7Skk2B0vj0uN4SBabXSJEz+6Rr+v56zruql4Y6Iq71Me9rE08nCz4ajXbWaY4XsL5oybmYCLz7ztSA3p24NrkrkkaDP+ocSBsOj63w+ey+FzD807T+66pjtoUBGXkJot/+LLxrHP//Ez4fAOMuKlj0TPxvnO4TJmwV5s55xl6/3XTots4//LIyccH7p+qm/mKYXHGcvaVkRefO3D8kOa1L3e98tyBV55ue+bo7h8/P/T8F/Y//0T/Fx9rfeuVsfPeweWZqZ++bKouSdhTkvPTFwbd3x5+2tH9xH29P3jNtvDa6C+ctvkztuP39UTzWWe+MTj3qnX+ZePyKe2Pvmv/xtOarz/Y+MpTfR+8MnzWaT3xZNtDo+rvf63n596+t1+2fOth1fMPt595yTz3wkCaNPobX7Z94UjLd54zf/iq8WevjJ146MBjE62zJ41LrzrmTo1+46juQevAS88YFk8f2du5q6NSsvTqwW8+YX71q8NLp7bXCw1qxOfb5NlspDmW95Nq2e/bZH/SJI3GkVPwCI5xMBpBRw/G4f/RzlrTJV3fkQt2R63oJe80svME6B/U3EsG9nqP8K8G6X9vJk4VSc9UiX6rk660cn7TzfeWK37WLLrQlPCHbvzNstg/abGF2mhfs/DdEv5is/SiiruiF68aJG81ceIZ6Ls1Uf9iSFyqFHyrQuCv517UCS/phQEDY10d9ZFO+nolM4FD/H0L7z9V3DerE3/Tgf67RvGDhvi/trH+jy7huzWp75Xyf7EnvjeRUacgXmncJWIib+8i/rNH8YsGwWyVbLme/XsV95+ao+drBW/UC37THhPopK/qZJQNvObJ7XfZFj2ORe/4zLN77f3l6XFCBMWkInZ/d+n0YIn369vrhfpdY+dmRyuUyYPdBeedU2edY2dPO0b7C5WpEt2ewmS54InJPQf37slOFqlrihNl0ubaHKO2qL425aHRNqmA6CjNLtsVo6rKXvbY/aeG33hBl5LO35Use+nJ4fKCpM7KtJaShMrsmLeeH192mpe89i89ulsgoh8Zr3v6/u4vPND9wakxq646I56j31OaKuZ+8+jeSUttbpJMX5+Zkyh68nBnXUlSZXZ8Q5m8siDjR88Py8R85S5OW0VSYqzg21/q7WzIqs6P0zVn5ySIjj+l7evKy08WDXTlZ8dEPfuYWt9V3tqYM7mvfpeE/eITXUuzYdO2lpvbwKCK/TuVQivn0gk8kYNoYrDpHE62ACfXrGEEg0aLJhhnamPWNHxyIvS6gVlQw/1IL367TlzI413sjA2qxasawbnGqEI+syee2xXL7FPQl1pjaqSstmhOowDLEWL/2BZTJWf9L21SkZiRISI6Y5gZXMzfLFrvkaxrZF/KYYnp2MEc/v3p0jIpYk8X54lwb2X8qka8pooLaqIu66VvVjITOfRft/J+rxFVyTgP5fFeKuco6Pj5pphHigX7k9HBtKins0U1MQwlT2hJoUtZXFMy4aqPy45CR+PxXC7ypJL91SI8hsFsFKDnGqPJ7ncPj2LgNQz0zZjmT5n83ukvTndERzGYGI7jGEogLAa7KEP22smBTW3djQIXPBPvu43l+QnD3bkfztgXnLZ3X56WS5nPPKRa/pGjuyunWJkQx+FMjdb+8sdH21p21VSmDmpylYWxh411KSmSn7kOPX1/d260YO7UYf+rUz7XRI+uVKcqecreUpqb9N7pqbe/Z5NymV8+YvjwtPn8a/bnHtEKeKK8VFFOskyZIfnxi6qHRxofsu85fkwbI2WM7q+NkTMeHmtZen10Yl+lujFPyOE8Nd373CPdKdHCLx40JMqF331uYG72YHpKVHNlvpAj/8ZTPefetNeWpJQWJitkMQ852n7x40PDXZW1BdG6zsooIUfE5T5/rH/eM+zzToWB8AkM1Ah+3clrkiAYJsBQJooRGIZtrBIkCJSB07BEnDjfFb2uYgS14rCBGTlxr+au6CWvNwh3Cdj/qZdd1EZd1gkeTuXly8W/18v/YQ8jhYWPZ3IauPT/UEV/2BCVyEL/uUZYIkT/sFu+S0D/uwrW7w0xu7joD8o4KwbBRYPo71uFqWzGf++WpfLwF6uYH/VKJzJFNULsrxrOpV5+GAPXO7gTWcLdEmJcggkJ/EQqsy8Ge7UcH0nhzeSgD2eyVbHsP2sk8UzGfDO3Q060p/L8rfJ9SdI2MXGyglstJX7flbqulV/S0ddVURQDr2EgOabyWuecNueJYVNPdUaSHEFQiZDT01n/kLXt5zPhc+5hzS7Mu+Aa858xlxck7uvOPH/aPucx/eAFszyK6TkxuuQZdhwo25UhEzDwZ490/eq1UZOusK4oxaTKL8tLvX9fRUlO/Jxn9LlHO/LjhWc9jkWP5bzTPNBS3t9V9MBAUXtF9vKboz/1muJlxLGp5gtvmM7PjJ083JgoZXieH/67V63vvLp/+Y3xroas5CRmR0uuRMQZHVDGCfgvPt57wWV780XjYVOjQITWVcTVl2cUlyZ++f6WDIXAd/rggtPUXJlUm5soFfDPfH1gzt2n252Xl6BQiDjf+WLTeafpyIHa4gSetiVNImSlRMdOG6vPnTYtOg9fV/Yr7wM3nQsNahT/u1M8FoOy6OTqUCbCoiFcjEZn0DCChuEIUStCfjsgXtdHBXWSwHVvI4Ia/uUeyd/VsYu5+Ecdgr9pBRf7MWsCcziO+C8N77ed4kwuozWFqYvjXewW/05DZHCJ37ZylBL0D528bAH69+3ij1TCbDnxw7KodS1+UR/zy1ZBMlPwi0ZeBofzTq3ijwb61wsEeTx0RR0T7BRcw8A23t8M4h/WMWJ5SCKdoUnn5Yi5BVGs36jEw7FRryrRB1Px/gT+v3aJo9n4z5oVDQKsTErTKbiGGKEpg/18AWt3LPOvhtj1Ln5QI13TRFMMvIaBPrdlcday4BlZmLX/3HWosz4NQ1FlqvTHr9h9LuPixnvqsKZ2E++i0zrnPlCuTN9Tm/31o/0nnuo9+Vh3dpJ8cqj+1Nf6S9Pi9LuLM+IlvW2Fnqds+VnyutLMEY2yICv9AWNtfk7svNPy7P3qXdHCs6ftC+7RZfd+Q2t+Y03mE9P1WcnRLz+jfvqQLlbIfukr+86fNi+47CeOaGIErDe/Pez32Bc95ndd9oJY0TOH9n/zqErKJsy9Dcq0xH3dOa9+pU+ZpNC0ZEULuS8+on/tCX19Yfx3v6yLlkQdstS98FRPfAzd2l8llHIeGGl+7cS+zCThsKo8JSHRoi9/+wVjpTJuyFA20FHcWZPwsLlJwmO/8KXBC6fC56hubgNX1fxVLfvsHnlBFB3HyVXyOIphG6aQQFAWijybxVvR0gNqRUCrWL9+LrRbsKIV/rCenRrF+VFV3DsNqe9XS+/L4Bex8Z+3ir9bRqRx0C+W8YqjsHcbuE/lcuLZ9N+2iar4Uf+hkmYI8F+10S+qo/Ik6NsliksG4UcG8X9rZiXyWD+r5itF+P2Z+D+0ibpi6NYk0V96JMHuKwx8q4qZxKH/uo23qhX/WS+sZDAlDMZP6oUiBrY7mvHXPub+OOYLZawjGYx6qegfW7jpLIazWrQ3ltubjP+iQzCZho+mc76VT++S0C/qhOu93PVO1moPnWLgNQyc95gXPWNLrrFFj+Wsa6K7JpVAiPxU2c9eGV90j8x5rxG+CffArUXv+DnX5L6OTGUat2iXVLlL1t+R+aVH9uXESXYpBI3KlHe+NXTqZH9NnqIgMTk5VrinOPr+0aa+PRnPHO7QN8TPeaZeerKrpzbqfeeY3zt1zjv+xYd0WbHs54717VeXpcu4u6K54/ur3/dM+pzGD7z2Fx7Vtxdxf/w985zH4vOOnn192qgrSJZGVeTENlSkdNXIvvXF0bxUWVYiT9OQ/vZLE9N7q9Pj+bFyvmWg9ucvO3aXx+SnCxOlUQNd+T951f6QvT0vQZwWI1LtzvrRK2NP3afLTeRlxAlqihPe/v7EAweKpweyf/LauLoqZqq/8MIbB8PQuDkDV3q56yruv7TGHpCiXBxHMRYLIwgEJ3AGG0WyOPT/2cxZ1wkCWklAJwle9/4gqOb9l0H+brO4OQqtldPL5PTuKPSlikRrHLeIi+ULmN8rYPyuL+r+zKh8HloTi8fz6f9np3Q6lvj37hxDMvpv7cw/d8ZNJmBnaxQrutjf9cp/1xajkuDGBI67NqZWgJbwGAdk+D92J68ZJAG1aEUrWdOJf9LAsiiw/6srZl0b9cf+pGcyWA+mov/SJW2Kxl/NZX1kiHkoi/NaJeGq5eZyiG9XK2zJSLuC8dP21N1yRmYU0cJF32mKPVPDezyR+F2PYr2XH9Dx1zTUTMy1c+j+Wcv8jH1pZnzRYz3rmuyoSkJwZFeq+CevjC26jT93j4S1s5t7fTOj5722OafFf2byfe/E3OsH33NafGfsP/i26fTXRs+5p+dmh/QNyca99c88M1JSmDLZv+us5/Dc7H3z3inf6YmzM7bF01Pz7jG/d3ze7ZjzjPpPO975jnXOY/r5KePbz4+/8W2b7/VJP7m8zrhwyrrgPexzT/u84/Mey5zb5HPt87ttb3x9+Icv2X/unfjxSwPLZyZ+9Ird+63hBe/YB17Loss2+82hN75nPeuyL5464PeO//i1sdkXjXNux4euoSWX/e1vG2dfGP3pjG3JPbzktb3zstn5/NB77skLHvMHXtv7MxbfrHVh9j6fd2rOPRoGxc0ZGFRJV9SCP2gFH7bE9MfTCYLGQGl0lEVw6WVi9Ae1iZe1gmCvdF17zas5+E5iXctfU/PWdeKVbvFqb8J/6uV/0USt64V/6mb9Qzv3Hzqkl/p57zdHDUQT79TIvlmQUCtg/k4d+xddylpP9F81kss9nIBW9vuemI9648mFbzrhehfnX3Wx/6M7+rJO9ptO+S/bJb/TigI94nW1aF0XE9QKg13Mv/XLf98Xt6qRB3XsgFryV13inwzxAb38j/15H2mi1rpZFzWxaz3SiwbW/2qP/0gt+XMn8b9VsjUV6//tFi52Kv5VJVjX8Va6OH/oSb/cEx1Qc4PaqHWtlLKB15g1n9fkc9mWnGM+5+i8d7qrJhUh6Blpkp+8MrHkHvGdDp/xC2t2Yd4Fl33JPb7gtCzOGM+7RpadIxe8Y/5TxvNu27Lb4p8ZnnMd/ebTqpKMqExFdFtN2tmZ0Y31ACa/a9jnHDz/usPvtZ5zji7MWhdP2xa95vOu8eWZ6fMe47Jn5IJ7ctltXPIMLnqHFknjPLYwSy5nXZglF9b5PfYP3eMXnI4lp2XJbV30WJZmzMunyBfxix6b/2Xjh077B57xxVPm827rktP0gdf2gdc2N2P0uc2LM5YPX7VfcJqX3JZ5t9l3yvwL59h5p8U/Q+Zk7tToL5xjy69ZlmetC26j32maPzWy3bnQgJrzz51RX96FN0hwAQPFCBxj0AQsRK1A/HWS9S5pwCAmX51rhUFytZoEcg841tWSgF4RMMhXdLJL5IJSWVCjWNXIVvsU6xrJmkZ2WcP+NxV9NBnN5mB5ItRZz/vrADPYI/yPHvwiuWKTG9Bygm2sQCdzTcsJqkUrfaLLWkHAIAz2CYKdgkCncK2LFdSwgzphsEsQ0PAv6diXtZyglh/UsC728tY17GA3acbXtMJVNTfYI15R81d7RJcNksvk8lFJUCNb6REFNfxgD7kINqBVXDLw/6bnrukTg128oEpArgVVC4J6clEotS70YxLOe4x+t23Jafe7Rt+fcXRWJRMoMydV8bPvTy+6Rs+5w996hVEuzHvOY3p/1jQ3a5t32xc9E37X2Lx7bM415p+1nXOPLJy2nXcdWPKOvzdj+eF39i6571vwjPldtuXZ8SWXY5nMg5lc9+y1+j2WOadpYdYx75mcd0/Ney3nPKN+r+P8qYmlU44lt93ntCx6x/zeEZ97xOcy+ckVBbY556TPM+7zWv2zFrJf6hmb94yd81rPzVp93rE598RZ97jPbfe7LfMe23vkWlDbnNdybtZyzu2Yd02f81jPesxzp63zZK6m55w2/2nHWc+o78z4+6fGljxTS87xZdf0otO+7Brznwqfo7q5DVw3RP1ZLXm7PGokhd4oY9QJWAYJ+5Vc7r+2SdZ0krUu3rqWfGke1IrJBnrdOrI1Q9RlLeeyhh0g1z1z1nW8y2ouubJULQzq+KtkQ5dd1EddNkh+3yFY6UpfV0UHtJxANz+okV3SxwRUir8ZRAGD5JJBtKKXrakkQXVMkBxtctZVglWDYMUgudwrXN1YGh5UCwMq+Wpv/LpeEtQK1gyiyySdJKu9YrKHrJEH1aygWnKpU3TZIL6skQQ0snUyV4JVnfCjHvaqRrimFQZVwhUtY77r74YAACAASURBVKWXvaYRrPZyVgz8ywZxsEcSUFNvI67thfq8o/NO8yK58H/0nGv8IVNVS2W0UZfz3vfNS27r3Onw0U4Y5cK93tE5z+Cca2jePXrWafTPWhfJBaLjPtfw4qzR53QsuyaXZsd9nrFlz/Tiqw6f1zrvtJw/M7ngHrswO+V32hZI6jp8TqvPSZLwnGtk8bR13j26cNriI1eK28gPFFyOBZJI5NcSS17HoodczkKGzBr93tEFr3lp1nz+tGXebVx83eZzbywicw77Zi3zbpNv1jo/a144bfHPjiydsS6Q32qZ/act82fMc7Pm+dNm8nsLj5lMcdYy7zIun7HPuUfnvCb/afP8jGN+ZnJx1rbgtZ19NfwrE8jAzb+NUIsDmqg1LfujLvafNbL/oY77szbtsloRUDEvGriXe6WBDctAGkCVgORAyDIX0t2ZEOiMD6hj17uF6+Q7Q0lAIwrqpMFuSbBb9rdu/loPHujkBDviyVFcj+Byl+gvG6T6mz5q3SAIaERrPdKgWhQwSNd6JCu9nBWN+KKBdbmHF+iJXullBLWMYDczqCZfFaxpBEGNINgdHeyOCvaJghpFUCVZI7+BkAQ7ogLkYJW7MhB10UCuEb2k5VzScANqWZBcbq4IaGLXdfHrvTHrpFmWXlKL1zXidYM00EOuGg3qooI996ANRAkRk3j3O6bF2RG/e5hcJhZ6esh+5pLT6neOLs1O+jwT/tfH57yOD2Zt/lOmc66Ja4RDI27mXpqxnnc5lpy2Zbed7Iu6LEsztsXXxs+7HctO29KpKZ/HOuc1nnOP+D2mRdeoz20il1+7yIXUC+QqbeuS2+GbsS57xhactkWX7YLHsUj2ae2LM46FGZvPM+zzjC56rAsui3/G7J9xLDgdfqeN/HTIaVl0ji45LctOx9Ip2/kZ+3m33X/KfME1vvSafclpWyRv2RedYwtOx6LTdt5lXThlXT7lWCI1W0nz6yJTWXaOL8/YST0u+9KMffnU2LLTsUC+syE/uSA/7/KO+tzGBQ8ZGHouOs0X3nSoGtNQGhNBcDqK/7Betq4iJxLJz3+0/DWdcE0nCehkaxrRmjpqXcv7m5a3rheRsy9aEdlSNRtuNXld14hCz1W9aIUc+ElWSTHpulq6qhJcJnutkrVu2bo+Zk0lC2hj1tTcVZ1oVc8O6PgrWsGaTvDnHlFALblsiFrTCALkU0C0ouGt6fir5KSrLKCSBVRxayrRukYeUMsDKmlAK17T8i8auAGNdF0nWNXz1tWSy1r+qk64rhIEtKK/6TlrOnlALQyopYHumHWVcN3AWyUNYNSaNiqgkaxpSSsdINedkzYzoBMGumWBbnGALJdwnVyPRp4bK+lEAa3o7+rEfAwjZ4YxBCUXKNx1X+giKBHNw3/y8v2//MFDC29MLb1+EJ6Lrx+EJwgEXihwfSCUXwzREya/FKIWit31mhe9Dyy/84CmOYugMWkoFoMibzVKL+lFf+2R/rlHcKlHsNIjWemRXCI/2LtygpBNr1DmkkEcGjFMGIiFCoSGhAnfSGzTKKGBwB0a8qk094gu9YhWNs5LPaIzu1NkOEJDcByj0egofvd9oYsiGAtFqvMSa5VJFcqkqoLYyvzYqoLYqvyNs4B0V+aDwDgyMFTgijsORrniAOGk8NVbG3o2opNKbiQG9cBUNkJuFoXMKsjtx4leCYFxr9V2pSwwrSsOkNXN87wRBcASggyIeINUrsuzMrWmLFkh4hCkDURwjFEqZnTJ8SYZe4+M2CPDm647GzcNkeONMvJsIuNuODbEQAiIEnol1W5ECdUPBMJDrlcYEjc0ysf6r40SqhC6SeFrxaAqcAt6rxRHTsrv3rg2yfEqERNHMQRhESiNhtOQu2+XCoRGo2Pkfl3kpnk4GyU31aPOW48AgrBwHMNQHEeYKI2G0ekb20QiCE5+7YVi5LaF1EkigCGhJ7nDHM5AEAaBkJuq7mDT0EjfqQnFyB0sEYzcB4CGYOTOsdT5GSCAIHQaDUdRAkEwFMEJhEAwHMHINWg08hU8jpJb997sxK7ehY6by4fe3VYUKAwdoapu7oZRoOPm8igNu04SR2kfn+Q2mii5UQyG0FByq8Jtb1cY6Qwkd+xFaOSOsSgoIUYjNymmzluMwBV15J6zKIIw6BsPOjaNJqTRyKc7Rj34riIQBjxCY2EoQSe3zcbIFnrXMXC7O09R8hQCdxYCkW4D7yw0qdxSCGwXAYqB20WMkqcQuJUIUAy8lWhSuigEtosAxcDtIkbJUwjcSgQoBt5KNCldFALbRYBi4HYRo+QpBG4lAhQDbyWalC4Kge0iQDFwu4hR8hQCtxIBioG3Ek1KF4XAdhGgGLhdxO4SeVDxd0lh7uRiUAy8k2tvy3nfWECMhlY2unFgGIai6JbVUIK3HoHQSunsqXzspPHo8eFjJ4aPnRg5dmLk6PHh60/a9UGhIcdOGo+dHJh4sAen4wiC3fosUxp3hACCINjGQVm/HeH3WUWiGPhZIRtRepGNA2QJuqEjorJ6r2WGYuA9UePAAOI4Tlw9yD9skP9+2PimbeN6TwAReYWEVYAgCNULjbz6+RQ5AiYOjAAlEklSUlJWVlZ+fn5hYWFBQUF+fn5mZqZCoWAwGNAYgtbwKdKkom4bAYqB24bsjoiAYeQIHEEQJpOZnp6uVCrLyspKSkqKiopKS0uVSmXhxlFWVpadnc3n88HEDI1GQ8mPdLf9mekdgUlkZpJiYGTWyy3IFYIgLBYrMzOztLS0pKSksLCwuLgYOEpKSoqvHmVlZUVFRRKJBNpMioG3AP0tq6AYuGWo7ihBYP1SUlJKS0vz8/OLNg5g90LpB6xicXFxQUEBl8ulDODtr2SKgbcf89uRIoIgcrm8oqIC2L3i4uLCwsKKiorq6mpg/IqKiko2DuAoLS3NzMwkCAJ2R29HLqk0NkYKYLxAzcTcVc0Bw7CcnBylUllcXFxUVNTQ0PDiiy9++OGHv/rVr958882BgQEQXlJSUlpaWlhYqFQqS0pKRCIRjUYDY8i7Co4ILgxlAyO4cj5F1qKiouDwr6io6Pvf//7CwoJer29vb//a1772T//0T+3t7eXl5YWFhe3t7VeHhMWJiYlwXvRTJE5F3QYCFAO3AdYdJBoTEwOmWIqKiurq6s6fP9/c3AwGhBUVFcvLy5OTky+99NL777//1ltvlZeXA5OYmZmJ49v+88EdBEsEZpViYARWyi3IUmJiYnl5eUFBQWlpaUNDw4ULF8BQELyHePXVV5944gmPx/ONb3yjtLQUvqjIzc2l0+m3IHlKxZYRoBi4ZajuKMHExERAuaKiotra2g8++KCsrKy4uLisrOz/5+S5c+fGxsbeeusto9EIXg+CSdHs7GyCIO6ogt7xmaUYeMdX4aYFUCgUpaWlYCK0oKDgJz/5yfe+973c3NyCgoLp6el//ud/bmpqevPNN81mM5iDAQxMT0+HS9U2VUsF3nIEKAbeckgjQiGPxwMdTvAmsK+vb3l5+b333nvrrbcWFxenp6fz8vJefvllo9FYUFAABoHl5eUxMTFgFVtElOHeyATFwLuznlEUTU9PB9QqKCgAbx1aWlra29srKipKS0uLiooqKyvBQhlgLZVKJY/Ho95G3OYGQTHwNgN+m5JDEEQoFIJ3fWAEqFQqgT0sKioqLi6GnU9AztLS0vj4eNAFBW3iNmX0nk+GYuBd2wRQFI2Li6usrASv+8ArB8g3sCAG2sPMzEwmkwkWZ9y1iERkwSgGRmS1fOpMgb0ncByPi4sDRg/wEMy4AGMIOp9FRUUZGRkcDocyfZ8a9Z0ooBi4E9QiPw780AHDMIlEkpubCxZkFxYWAvqBZaKFhYWxsbEMBiPyS3S35pBi4N1as2S5IA8ZDIZAIIiLi0tPT8/IyEhPT09JSZHJZCwWi/oe4vNtARQDP1/8P6vUYb2C3dCgF7xsgC/9KPp9VhWwZb2hVUPtUrFl2O4EQVC1IKeh1RwaHnr3TijTXZjH0KqhGHhXVTDogqIoCi0e5BskIXTcVSW/owpDMfCOqq5PnVmKcp8awlusgGLgLQaUUkchsC0EKAZuCy5KmELgFiNAMfAWA0qpoxDYFgIUA7cFFyVMIXCLEYh0BoL83eJCU+ooBD4DBHbWViOdgQAoWDa4yINyUAhEDgJgFS548bNdakc6A+GiDfgHvMjBncoJhQBAALbSHWz0GNEMRBCEIAgGg0FsHPDXP/jGAQNBOAjcijssIkEQ96BmCNf1jjB8oAAA6kZYhcUKFb5ew42qaVMlmwbeSMONwjdVsmngjTTcKJwgCCaTueNPKyOagSiK6vX6/v7+gYGBvr6+vXv39t/4GBgYAJKhIiAwNGTH7jD9m3q3qDwsLogVltVNZT5Rf5iSrcjvIMonqg0V2HpBtpUTqBY6QhO9he5NcwUD9+3bt3fv3sHBwbS0tLC1R1vsjkY6A/fv35+bmyuTycRicUxMjIw6KAQiCQGxWJyUlDQ8PFxQULCzrVYjnYEHDhwQi8Wgn02NOigEIhABLpc7MjKSnZ0NuLRF0wfF7gwG7qxssJCUg0LgM0IAQRAOhzM8PEwx8DNCmFJLIXAzBCgG3gwd6h6FwGeNAMXAzxphSj+FwM0QuPsZODQ0JBaL4TgwdCAeugQBTtXA/fagJMAPeOHahdC78NaNXvpDnTerCurePYnAPcdAsOYAfvcNOIPjOPjzKyAYZBR8SQpDgAAIB27QbGA43N0IOuBUVaj8PdnYqEJvgsA9x0AajQbIlpubm5qaCqiYnZ2dlpZGEEToNkTQoEG6QjsJ35wCGRAOaQzNI+QtWN4B7fAm9UAF3asI3IsMRBAEw7Da2tq8vDxAm8bGxtLSUiaTKRKJYmJi6HQ6hmE4jovFYi6Xi2EYi8Wi0+lCoZDBYDCZTBAOmCkWi6VSKZPJJAiCTqfL5XKBQMBgMORyOZ/PBxuNiUQiuVy+s/et92rLvFfKfc8xEBgiHMfr6+vz8/MBi+rr64s2Do1G097evmfPHgaD0dDQ0NbWptVqMzIy8vLyent729raKioqdDpdR0eHwWAQiURVVVUgSlNTE5vN7unp6ejo0G8cbW1tGo0mKioqPz+/a+OoqamhzOC9Qqwtl/NeZCBYrl1XV5efn4/jOIZh9fX14HcIAwMDu3btSk5Olsvler0+Ozu7tra2r6+vvLy8o6ODzWZXVFTk5eUxmcyOjo7ExMSMjaOkpESr1TKZzM7OTg6HU1ZWBgjZ2toaGxvb29sL6G0ymfh8Pqgaaky45SZ6lwveiwwE48Cqqqra2lqwXL25uVmpVMbFxRUUFDQ1NalUqoSEBIPBULdxNDU1FRYWVlZW4jheVFSUmpqK43hra2tqaqpKpdq9e3d5eblWq2WxWE1NTXQ6vbi4uLa2liCIhoaGpKSkvXv31tXVVVVVtba2gp97UVOjdzmrtlO8e46BYNYEw7DU1NTBwUHwR66RkZHo6GjQ7czOzu7p6ZFIJFqttqSkpL6+vrm5GfwqHUGQkpKStLQ0wMCMjIyhoaHy8vKamprBwUEul9vc3IzjeGlpaX19PY7ju3fvVigUnZ2dVVVVxcXFg4OD4B/rVF90O030Lpe95xgIWj+Yw0xPTy8vL6+oqEhISEBRlM/ng9/BpqSk4DgeHR1dXFxcUFDA5XIVCkVsbCyKotHR0QKBAMfxlJQUgUCQmppaUlKSnZ2dm5srFosTExMxDIuJiQHCycnJHA6Hx+Pl5+eXlpYKhUKYOmUG73Jibbl49xwDwR9e4QsDMA4EM5bgCvqoYL4UvpAIdSAIAmZQEQSh0+kIgsC/l4A+LdAA3liAK5DHcTzU+oW6t1xflODdhsA9x0DQCw390zKYFIHWCbwVBDYKCkPGQirChgBuQd6GGjeoEwaGsi7UDbVRjnsNgXuOgfdaBVPljXAEKAZGeAVR2bvLEaAYeJdXMFW8CEeAYmCEVxCVvbscgXuIgaGzKZSbQiByEOByuWCXip2tlIITfgiCRNwfPFEUHRoays/PT0pKStg4EqmDQiCSEEhISMjIyBgeHs7JyYFz79uy+xHNQARBBgcHDxw4MDo6ajabTSbTKHVQCEQSAqBZWiyWrKysu9AGIggiFApFIpFYLJbJZEKhUEwdFAKRhIBIJJJIJCKRiMlkbsv0QeGItoHge1z4STv1EhxWG+WIHATAvg3ws+/tZizSGYhcPXZm4rcLByVPIbBdBK62UGS7EYF8pDNwZ6WiYlEI3B4EIP2AYweJUgzcAWhUFAqBcAR2PESiGBgOJeWnENg6AmCtPxgE7oyEFAO3jjYlSSEQjgCcgAFfvYXf3oI/ohmIIEhCQkLi1SMhISFp40hMTExKSgJXEAK9QBYGbt1xvbaryZJp7eyAOjfN8E10bioPA6HjJhquvwViwXCoBDrArTAvlL+5AyoPix7mvbkSeDcsFlQOBbbigEqgIzTWdnVC+U21paSk8Pl8ZOPYAumuEYloBqIoOjIyYjQarRuHxWIBDupKIRAhCDgcDqvVOjExkZ2dvYNfWId+ehq5q9LS0tKEVw8BdVAIbA0BoVC4NcFPKxUfHz84OJibm3t3MnBwcFAikYCXgTsb6V5j8ikPhcAtRQBFUbAyOzc3d2d7Okd6L9RoNEqlUrDmdWfPmFsKOKWMQuAaBBAE4fF4Q0ND2dnZdycDgQ2EhUapg0IgkhBAEITL5R44cCArKwvsFQbb6hYdkW4Dh4aGZDIZ1f/cYnVSYrcZAfCF7sjISE5Ozs5a6R3AwND/B95mfKnkKARujsA99I38zYGg7lIIfC4IUAz8XGCnEqUQuIIAxUCqKVAIfJ4I3KMMBINXHMeZTCYcyNLpdAaDAb2MjQN844sgCJPJhJPFKIpCL9jfnsViIRsHjUbDcRzuYw/+lAbVfp5VTaUdkQjciwwEVOHxeC0tLT09PWB/Dj6f39LSYjAY4uPjEQSRyWRqtVqj0YhEIgzDMjIy9u7du3v3boIgMAzLy8vr6empq6ujbxw1NTUDAwPl5eUYhoGflg0MDGRmZmIYFhUV1d7ebjAYEhISIrIBUJn6nBG4RxmIomhcXNzY2JjValWr1UwmMyUlxW63WyyWPXv2oChaW1vrcDgsFkthYSFBEB0dHTabzW63JyUlMRiM7u5uq9VqNBo5HI5AIHA4HCaTaWRkhMvl8ni84eFhs9msVqvpdHpGRgZY+NfY2AhN6Odc51TykYTAvchA0LEUiUT79u1zOBwVFRUYhikUisHBQbvdDn5tnZaWZjKZzGZzQkIChmEVFRUOh2Pfvn18Pp8giNra2rGxMZ1Ox2Qy2Wy2RqOx2+2tra0EQbBYrJ6eHofDUVVVhWGYXC4fGhqyWq1KpZJakRNJLT9S8nLPMRAsEAWL1IRCYXR0NNzHSSKRKBQK8KcxFEVlGwdYPkEQhFQqFQgECIKgKMpgMKKjo3k8HvByudy4uDgw2ENRlMfjRUdHEwQBU5FKpZQBjJQmH2H5uBcZCOZa4FfJgGNgcAjZCH8zCH76B5gGjCcIgfs+gbkWIACUQDeoaxAIvyKJsAZAZedzRuCeY+DnjDeVPIXAtQhQDLwWD8pHIXB7EaAYeHvxplKjELgWAYqB1+JB+SgEbi8CFANvL95UahQC1yJw9zPwwIEDYrEYTl1eW3zKRyHwOSOAYRiHwxkZGQFf6O4gN3AdZYTu1HTgwAGZTAa+PgbXSPpCmsoLhcCVfWLA/wN3YCoinYFDQ0NVVVVKpTIvLy8/P7+goABcoSN/44Be6IBiBRsHEIPCoWI3CoQy0AElYU6gWpDKpmltV3grOjdNCOYhLJ8g/zAwTOwm4TAVqAHGhSFh0YE3LPB64TAxWFmhWIFYm8bdNGObxg1TAr2hajcNhFkKS+t6b0lJidlszs7ORjaO7ZrBiGYggiBtbW1dXV1qtbqrq6u7u1tNHRQCEYZAd3e3SqVKSEgAXLqrGAiWttDpdGzjgA7gpa4UApGAAI7jYA3jdrkH5CPaBoZmcWfFo2JRCNweBHZmAOFqR9CD7eypfOyk8ejx4WMnho+dGDl2YuTo8eHrT9r1QaEhx04aj50cmHiwB6fjCILdnvJTqVAI3KEI3AE28A5Flso2hcBWEKAYuBWUKBkKgc8KAYqBnxWylF4Kga0gEOkMhO9YQEZvUqSbvAz9xLg3UUvdCkUgtDogqtARKvmJ7utjXR/yiUo+R4HQ3Ia6t5slEDeiZ2JgFsEntmD6COQY/sEU3oKTSwCITwPNdqGEKX6aRGFcWGoYsrP83JJYyMbeAqFZ+jS5CtUGQUOvHjveDeTTZGlbKKEoCooQFusmNiBMMtQbimokzoWCUoEr5Bt8EgMsIOtgHUABWNRNIYN3b6Hj+qS3pRy2TlidsFDb0nPLhSGAMIcAdrDnwHaTgxV3lXdkm96uEiAPAIftGOK2M23bihVW1zsrAsx5JK4LBZYNbOkJSgtqDjYCiD50hCEIKnhn0ISpupe9YQCCGvmUbR1UDdxPBNbpp1R7G6oJoAHsAdyXCGR7B5mPdAYiCBIXFxezccTGxkZfPRQKRWxsrFwuh5wEJUFRFD6VYaWCWglrRp9RVcGGtQP9YIUHjAgNBQz5vBwgJ6Bo+MYBH3nAsa2MwcaKIAioLFBTKIoSBLHdakJRFO4PtAMCbCvn0CSEZhuQEBJpuwphxAi1gQiCFBcXp6SkyOVywMO4uLjY2NiYmJjk5OTi4mI6nQ5bA9jxmsfjEQQBHq4SiYTNZt+GigG4oyhKp9OZTObOUmQymRwOB8TFMIzNZjMYjO3W6GchTxBEdHR0/sbK+IKCgtzcXKFQCMfe2yosfKyA/ZEzMjLAH1ppNFpUVFR6ejqLxdpWEQQCQU5OjlKpLCwsjI2NvQ272nE4nJSUFDabjeO4UqmsqakBv/fa7rMDFPMOYGBVVRWDwQh9DAPKEQSRl5cHqh8WA8dxu93OYDCEQuHevXsHBwf5fD54SsFPnHAcB9YGPNTBQxTeBc9j8FgFWxgCYfDABs9p8KgG0YE82I0bwzCpVNre3g4EGAwGiAtSBKsH4QMbOkAG6HR6VlbWwYMHQUkxDOvu7lYoFGHfZIU+brbVUj+NMIZhLS0tk5OTOp1Oo9F0dnZGRUVhGAbKBbIESwG6IeAusBUANCBcWlpaUVEB4WppaZmenubz+QwGY+/evfv27WMwGMDMAnxg8REEodPpoZUFgMrPz3/00Ue7uro6OjqmpqY6OztDMYfWFegBXriSE9YjyBuoUNgSgBjYTQ+2AYIghELhkSNHRCJRR0dHf3//nj177r//foVCAZ7728UZNt3ItYFVVVWhhg4+aXAcv56BGIZNTEzw+fyBgYHDhw8LhUKwn29nZ2dtbS2Px8MwTCwWq1Sq+vp6NpstFAqzs7Pr6ura29u5XC5s36mpqfn5+S0tLbm5uZWVlXv27BEIBGCv7tbW1vr6eh6PByqMwWDIZLK2tjaVSiUWi7lcbnZ2NoPBSElJaWxsLC4uTkxMlEqlhYWFtbW13d3dAoEAx/GUlJTOzs7y8nI2m41hWGpqKvgKZHp6GkwGYhiWlZXF5/Nzc3Pz8vJaW1uVSiV8DO2ssrfbOKA8iqJdXV3t7e3ASoO/bhQUFNjt9n379olEIg6H09LSotfr6+vrY2JiDhw4oNFo6uvr+Xy+VCodHBy02WwVFRVCofD+++8fGxuDfybncDgTExOlpaWpqalHjx6NiYkhCKK6utpqtfb09LDZ7KSkpKamJhzHeTxeVVUVn8+vqqpSq9W5ubmgspRK5eTkJJPJJAiiqqrq0KFDTCazqanJarX29/dLpVIWi9Xe3m632zs7O+l0Op/P37t379TUVG5ublpaWmlpKZPJ3L17d0ZGBpfLbWtri4qKqqiosFgs/f39UVFRcrm8qampr68vKysrNzfXZDIZDIapqSmJRGI0GuPi4ng83uHDh8vKygC9IWhbdNyFDDx48KDNZnvggQdAWxcKhXa7vbq6Wq/Xj4yMKBQKh8NRV1fX1dVlMpmysrKOHz++e/futra2oaEh8MzGMGxkZMRqtTY1NT355JMdHR06nW54eDg+Pv7w4cMNDQ2tra379+8HD0sOh2Oz2RobG/fs2bN3796kpCSj0bhr167x8fGysrLR0VGbzVZYWPj00083NTX19vZ2dHQkJSVNT0+XlJTs379fq9Wmp6dPTU2VlpaaTKbJyUnQj6LT6ZOTkykpKdPT0wMDAw0NDQ888IBcLoc2YYsVfEvEgA0cGxtTbRwVFRWxsbHT09OFhYXNzc3Hjh2LiYl55pln9Hp9amrqxMREbW1tfX390aNH4+LiRkZG9uzZU1hYePjw4YqKCoPBMDAwADrboFuRkpJy6NChiYkJYBsrKirGx8fz8vLUarXD4SgtLZ2YmGAwGGKxeGRkRCaTHTt2rLOzE/5ZOT8//9ixYxUVFZWVlRaLZd++fbt27ZqamsrPz+/s7Ozq6kpLS5ucnMzLy9u/f39JSQmgUHZ29v79+7Oysg4cOCAQCB577DG9Xp+bmzs2NlZWVjY1NaVUKltaWiYmJhITE48fP97R0ZGamnrw4EGlUqlWqx977DEwwKHT6fX19RMTE2ADaGgetg77XcVA0EV59NFH9+7dOz093dXVheN4cXHx2NhYeXl5Y2PjkSNH9uzZc99999XW1jY2Nj7++ONVVVUTExM4jvP5/LGxMQ6HA7pPQ0ND+fn5BEHYbDaxWJyRkTExMVFWVnbkyJHKysqamppDhw6BzhKLxTIajRMTE9XV1WB0OjQ01NfXt2fPHgzDCgoKbDZbUVGRw+FAUTQjI2NgYGD37t1DQ0PV1dVardZut/f19bW2tuI4XlRUdOTIEfBoZzKZFoslNTV1amoqPj6ey+UePnw4PT0ddoa3XsefXhLH8dbWVpPJ1NDQUFdXl5ubW19f39fXRxAEHdskQwAAIABJREFUh8M5duxYcXHx448/HhcXFx0dbbfbcRyn0+kjIyN5eXmHDx/m8/l0On3Pnj3d3d3FxcX19fVwXAD6lv39/VNTU1wulyAIk8lUV1fH4XBiY2O//OUv19TUWK1WFoslFAqNRqNMJrNaraAPDHr1BQUFjz/++P79+wcGBjo6Ouh0OovFKioqUqlUU1NTfX19cXFxjzzyiNFoLCgo4PF4fX19Dz74YF9fX3JyMovFstvtaWlpZrP50KFDer2+q6urt7e3tbUV/LPgiSeeyMvLO3r0KI/HKy8vNxgMBEFwudwjR45IpVIwTfjwww/L5XLY3d0u2ncVA0GXfXJyEnQFn3766ezs7IKCArPZnJubm5+fv3v37tra2vvuuy9/Y1KhtbW1oKAAcInJZIKaBsOY0dHRnJwcHMcdDodQKExPTx8fH6+qqhobG8vNzc3Ozm5oaABDUPCDl/z8fJVKNTExkZaWNjQ0ZDAYWlpacBwvLCy0Wq3FxcUmkwnDsOTk5P7+/qampoGBgezs7JKSkpqamv7+/paWFoIgCgsLwTiQRqMxGAyr1ZqUlDQ+Ph4bG8vn8w8fPpySkgJqegfP2u22jFB5DMPa29s7Ojogc2pra/fv3w/G21/4wheys7OffPJJhUIhk8kAA5lMptls3rVrFxgLEASh0+laW1t3797d2NgIHnOgLBiG1dXVDQ0NEQTBYDCGhoYaGxvpdHpKSsqXvvSl8vLyyclJOp2ekJBgMplkMtnY2BgYYINHVX5+/vT0NBzaYRjW2NjocDhycnLq6ur6+voUCkV6erpSqTSZTGq1OicnJzMzs6amZnp6Wi6X9/b2Tk5OlpWVjY+PP/jggxkZGf39/aCkcXFxjz32WGZmJmBgSUnJ3r17CYKQyWQPPvigSCRCECQrK6uhoQF0W3YwkRv6KjtCx4EoilZXV8OZGDgdDEwB+E8LKAaoDxzHwaiAwWA0NDRMTEwoFIqJiQmlUtnZ2Wm326Ojo6enpwsKClpaWhwOR3Z29le+8pXa2tr29vYDBw5wOBygeWRkJCcnh8lk2mw2oVCYmZk5PT2dmJgInvcqlWr//v2gOXK53MnJyaqqqpKSkomJifT09KGhoezs7OnpaWD6jEZjUVGRyWRCUTQ1NRX8Gm16ejorK2t0dFSn0+Xm5k5NTe3atctkMgFTSaPRCIKw2+3Jycngl0/ABmZkZMBWG8qQz9qNomhHRwewDADn2NjYI0eO5ObmdnR03HfffVKp9PHHH4+OjuZyuRMTE21tbWq1+tixY4mJiUajUaVSKZXKo0ePpqenV1dXG41GNpsN9IAZjvr6+gMHDhAEgeN4SUnJ1NRUenr64OCgVqtNSkp66qmngIDVapXL5YCBcAauoKBgcnISeIG25ubm8fFxMD4cHR0tKSmx2+2ZmZn9/f1arXZiYqK7uzs5ORm0jerq6ueeey4+Pl6lUh08eJDL5ebk5Nx3331ZWVm9vb2Dg4NJSUnHjh3j8/kKheK+++4rKCjQ6XRHjx4VCoUIgmRkZIB//uz4mRjpNhBF0aqqKhaLFTqXBSqPTqfn5eWBGTNIQhzHc3JywNf0DAajtLRUKBQmJyeDmRgwMZOUlNTS0lJbWysSibKyssbHx6urq5uamiQSCWwWGRkZQqGQIIicnBwWiyUQCLKysgiCSE1N3b17d1VVlUQiAUnjOJ6cnNze3t7a2hoXF8fhcNLT06VSaVlZWWVlJRhtymSy1NRUgiB4PF5GRgaTyczNzW1ubi4vLwdTtUqlsrW1taioaNeuXWAsiuN4enp6VFRUZmYmh8NhMBhKpRI8IMB8zGfNulD9KIrGbhxwnhbDsLS0tObm5vr6eplMxmQyi4qK2Gw2QRD5+fllZWX5+fl2uz02NlYsFjc2Nra0tGRkZNDpdIlEUl5ezuPx4OMfx3GZTJaeng6eaHQ6XalUNjc3V1ZWcrlcOp1eUFDQ2NiYlZWVlpbG4/Gys7OBtQGVJRKJwIQcrDuhUFhdXd3Y2Jienl5VVSUQCMrKyjo6Ompqang8nkwma25u7urqAo1HLBaXlJQwGAxgKjEMA+2qpaWlsrJSIBDw+fyioiLQAjMzM9va2oqLi0EbQxBELpfDKgMzc6G4bcUd6QwkCKKsrCw6OlooFMpkMtHGIRQKRSKRVCotKiqC73/AFCKcLYRz/XABB7gF6glcaTQaGLWDd1Nw8Q2c7YBdPgAubH/whSz88Qt4+oKBKIIgmZmZY2NjxcXFZrO5rKwMTnODdIFJh39rglmFDmjoYLpAMyzCVqr2FsrAbACdACjYkwSvFoAMn88fHx9vaGjo7Oy02Wzg3SwoF8AKqoJggsJCIwYEwOw3eP0AaxDMAAMvzAnos8AraNBgKAFUAf2w/xxaBeApAAsCHTBiaCwQCAsLGh6EAhJpu7DDiJHbC5VIJDKZTHr1AL8lk8lkIDy0ALCBQoaE1QQkHnDgOM5ms+Pj4wGaAGKgBESEDIStBDIBtBiQEAAdRAd1xmAw4uPjc3Nzk5KSwIQNzBtIOlQhrG/wEAECIBD0uuFiZXgLhmy3vncmD0od+mCCyEAiAQewciUlJUqlUiwWwxeG4AkFcQbrJWAjBuUCRIWv5kASoEMOQYMy0ISCBgDJA3tDoKSAmWE6gWbYSIAMgBoWB9IepAhsI8gGXIoAcwirA2RmWyCHNuAIXZkNsQhrxKFewIdQ9AGsABoIIoQmrEYBlEAhVBIKTSjowA3ugnRBDoESkC5ssiDpMP2wcYTWKKx7WJ3AEUry0IiwLJ+XIxQB+PCCjyFg58F0JXzEhEIEyg4BhDUS6oA0A+DAGg9VCKsmFByQt9AQWK1QHsoAB8wbzACMDqOA2gwDHNYXzG2YwM29MPUItYE3zz28C9GEIVtxhMaCQICIobduogqKwegwZFt6bpLEHXELtNobNUEITqjA9UCFhVxf8FCBG7mvjwUThVGgI1R408BQgRu5dxwRKATRAYCRaANvVGwqnELg7kCAYuDdUY9UKe5UBCgG3qk1R+X77kCAYuDdUY9UKe5UBCKdgSiNhtAQGg1BEQyl4aSLOikEIgaBjWlS0EJpO9tnI9IZSENpNJxGw2g0lIZidNJLnRQCkYMAgiMYk2yjCI5hdBTd9ibxkc5ABOOQZSRPnHwLhGHUSSEQOQggCI6gOJkfhIXSmBvWcHv94YhmIPn1h1TUXBbbXRHTXpzcXBzdUpzYWpLYUkydFAIRgUBDWVxjraKwQIiTfVAEQbdHv9B3lZH4Rh5FkLbqzLkz9kW3cck5Peex+D126qQQiBwEFtwH5047nj3aycZRBCU2Ziq2R8KItoEoirTU5PxsxrToMn/gvv+c27rgtVPn5gh4touMY3M9FMLbQeCXM/bzzqFvPNrBQugIJqTdZeNAFEFaqtIXTw37PJZFj83vtvpdFuq8EQILbuvCBkTgeiMxEA4lYayby1N3N0VgwW1b9phPPNKJIziNRmx7HobsuZJbFUfoqrTrGGjbFAUq0O8in1BLXvuC2+pzmrdCKp/T7HdZgORWGEuBvCkCFAMpk3gFAci6+RnTVhhFcW9TRm03kGIgxcArCPicZmD9Fj22rTAQii24rWQPn+re7wgBioEUA69BYMlrv3BmYslr/0RGgf6q32VZmnVcODPxifKUwKYIUAy8pv1titG9Eui1Xpgxv/LsPoO66dkHO85597/vciy6Dy+7TIunjB+67B/Ojvrd9jn3lN9lXnJb573m866pJa/5xa/oezQFnuOjc55h3+zQ3IxpwTW+4DQueC3n3KZ5t8Xvsi+4P5nS9wrO15pKioEUA68i4LX/yjv5xUNtbAZm71HOe8aXPGP+Vw4sv25a+uGhs677/DOHznsty57B856xD2Yfmj8z+os3HjjvtT8z1ZYfK3U+1bE0az//+tSc0zHvObh05tA5l9k/a/a5LRv0o2ahr+JMMfDefNZ+YqnnXfbzM2NPTbWxGXSroXTedXj5NfMvPeZXntur2ZNdlqvQ7Sn65pNq/1uWJydaGwvi26uSuurzHP2pxx9urytL/t4TA72787R1hW0liTUlqSceUs+fmfC5h/1Om99t95OWkDo3QYCygZuAcm+2lfdmjBc8jicmWxgEYeutnJuZ+oXL5H9tvLY4TchkDKirk6OlmUncE8/sTYjhJ8ULejqVBINdWRR70Kwi6MSxQ80yGU8uZgxqCoVidlYM+93XrH7X/vOu8Tmndd5lujdR/cRSUwykGHgFgbPe4Q9mrU9MN9MJzNpb4XOP/8JrfOflcZGI2dGQMT87PtnbKiQIh62Ty8QnLLvnTlvTk6R1BdEHD7QSBPLYdINMzqsvS5r3PlBdmCHn0t/+vvmD08NLp8b8HrvPQzFw85ZGMXBzXD7x0XX3CfzstOm8y/il6Q46E9FrStzPT3hfGHR/05H4/7V37c9RJPd9+jU9Mzsr7a5Wb4kVCBatQOixEugBCKE3Ogk90IEAgbR6IglOgB7AocfdFZxzQWBflc05ie3YnB4cPp99tuMkZ/sAIYHt2C6n7EpVkoorTiq/5z9Iehvae7sSnFS8tNdiaun59re/3f3p/sx3Zrqn29TKc6J/9vHJI7VFURQPnaqJ1I2qPbnffrfNYqq7M9edbqskKnjjdEm0M6Ikf8ODH5wpynXFWdWPvtHxYO7or6ZPzs+emJ/tCD/EnkqNJAMlAx8i8NO53n+aO3W5v0FD1EZRrA07IsiO3KT6ulyrRjLSXXERxt6sxB9NnyrPT7Np0OWwarqlYGvUaEe1js3Lr5UlREVW7dj06x9c2JPjijfVj7/ZeX/u2P0b/Xdneufn2AQaeYQiIBkou8VDBOa/3/7rD30ffbVtfKjpjcHaS2f2XRps/sp4009udo73VR+uLjh1tPLTb5/5/tcamiq2VJQVvPOlzvUpCSXZSTeudE681vjRu8cunXn1b95seTB74vpEy5uv1f10+sTCzfYHs/133u+Zn5UMXLqnSQYujUvotSrsJXfmem7fOLZwq/fO907e/qBr8VbPvbmu+7dO3Hm/c/Fm7+1p3y9vnfzF+8fuvO+r2bXRZhqedXGb4yPfeq3s/vd67948sTjnuz3bf/9W3+LssXs3e+9+MHx7tmfxg657s70LsyfmpyXOSyMgGbg0LmHPt9AKLswN3p3uZ6PnM92LMyfuzAx8Ou2bv9l1d27g9kzXndn2+Vnfr2723J8+cWd68BuXD39tov7Dd9vvzfXdvdH74Mbr92Y6Fm923ZvtXJjrmp/peMDGBvtuz3bemelanOtbmJXT1pbuaV8ABhZtXnzfNz/nn7so+8HyD2PzM3z0vHthpmthuufe+333504ssDconYuzvfMzfXfZsN6J+Rtd92c6Hsx2Ln7QfX+uf5FB2rY423ZvhnOsd54FehZmOhdmu+/OdC3M9fgdoByR/6IysLxw8+IN392HX77JK/HS/SDUJUrJ80Eg/H0gZ+A8m7/f8+g6LXuhROBlQSDcGQhB5U7Pg+nOezf9n5+y2yr2Gbg8JAIvDQLh/o18eeHmhUd3ofPTvfMz3Q+P6UcBIZnpnl9SuJz8C64cVH1+GiQU2C4pX1L4BUP73kzv4mzn1IUwXaUCAJCXse7rE7XvvdXw3hv11ycbrr9Rz4/33qhnkoAjSMJjg4TX/akCE3KFJ6qJhEGaInloSd578zPFExZCNXlU4K8ovKhsaCpRElEdERDKonhCWRQjSFloihyFJEhTlDPQVJB9YSQwIHS4QfEbZD9ITVgQci4JzD1UspzNwFTLGRTWhDIPCHlgwvfeaPyrt+pPte3EECsKXvlihS/3OjGKomAMNZ0YFlXXiW4Qw2C/gYfhFxqG6o/lvyTwNECu8uQ8SZCRoFORkTD1KO2fM+KW/daYUByPsR9gdtlCcjtB+S5Z90eawbAYBqsptxBayEexfy4wN86ThJYw1MLy+T60GWoksDDc4CMjD/EMTPIoaokS8qhHCsHVFJZF9QPyXaJsn7X2EMal0gY3usBE01SNqqpKxIJLK1ur8CVfqcm/KL/CVkEF/kX55ZYREoGXDIGgDXdXSr+XfcVef/keVmp122KsAhGZRCKwAgTYUoPsj/vAhycr+U84z5dxzWxRkdA9vsW1RwYkAi8QAb61fTgzkO3WAuELhFhmLRF4PALCT6wusDZ84Orq9tRTCbDERYFfIMSFMChHHssvkBCu4j1ZkL3PnIpuwaU8Ly78jN4yJ4G3FRhj4t91BGAFIAUCDDEBUAUq2xdIJYRAggCLAlBVFArZJo7P7w9CFWBVVQBhQLPj+eX97HMSneqlvgt99jh83hwEkXgPVhQFISTCoVYEvqFRT0vCC8CtAQACTx+TBcbY/6oZP9QHiCgK9W/WiBVgUSIhVDXFhFDHQCWAKpDxDkONbeb4fCmgQmAoCkUAIALAc878MRA+nSjRQyQDnwwo9zD+XQwZ6xBChLDX0Mj/x6EMtMJ9I0Kr2E0g0MzSYeHEeC78F2P8Od0gL7bwnAomqqKoAAFgAUAjxKIDSBEi2EAQYogBURWgEoVAANiGqs/xD2CqKgioKsAGgMxHP8fMn3lWkoErgJg7QN7FXS7Xli1bBMe2bNmiaVqQLQAApTSUmUFqqz7luQMA7HZ7VlYWp59/CIc9OT/eLADA4XCUlZXt2rXLMAwAmU+E2AqAPRoobg1mODRqAKibBJrJGBjM+zAmMPY9XwYqjPw2iEmKCuwArmaTvsdj8UJjJQNXBr+gXFNT06VLl9xuN8aYUjo8POx0OsUjH2epYRiHDh1CCHG3yXMSviswY64vfnkuQp/Lg04hhBize0gIYVpa2uDgoGmawhvzJMvZ4aQ9efJkTU1NQ0NDX18fpSZ367EITHmNn5dos0XO35XbfUnRGw04uiMhETNfrwKFAEVB7A5WjMwFVoTLRawIhF4PgpIHngrlh0ICkBJpV8HX9ybstyP/XplBea7hU8nAFTcev387cODA0NBQR0eHqqqapp09ezYmJsZisZSWlnZ0dGRmZuq6XlJSMjo6mpeXx5kAIbTZbDU1NUePHvV4PAghVVU5ITMyMlJTU5ubm71eb3p6+sGDB3NzcwkhqqpmZ2cfOXIkJyfHarU6HI68vLyioqKWlpaUlJSqqqrGxka73Z6enj48PFxVVXXo0KHU1FQIIaXU6/W2trZ6vV5CSGJiYnp6enl5+YYNG/iDn8fj6evrs9ls0dHRExMTqTFx7N4TKt5IcH/PJpsKrBS9kmD/oCTSbkbmRELNYouwoqYIlGZBaWaUQRLzIo04Gy5NxskGIshQAcYYOpGRZWV7OluRXuqEFmjk2+AOOyqL0aIMQLAllg2dRRlmQloELImDe5w4QseYmNsobIxFhQkoUiVuC1lHqUrpARO7CNaQ3RuDoqllYW9SQbJVBc/ZBa+4h6wogWTgiuBiypyBzc3NRUVF/f39e/bs0TRtdHQ0Nja2ubm5paXF6/WePXu2oqIiOzt7ZGQkLS2N3x8SQvr6+qqrq3fs2HHhwoUNGzZwZhJCent7+/r6iouL33rrrfb29l27do2MjCQnJ1dWVvb09OTl5XV1de3du9ftdl++fLm2traxsXFsbKy0tPTIkSOdnZ0ej+ftt9+ura3duXPn66+/npycXFdXF5jQ6/W+8847Bw8ejI2N5c9+hBC73a5p2v79+7u7u6luAdCCVeiG2u9rnVMZEQcSSGIMyDHhJhN/XGDJtFg+Kje/kxX7w922+VJzayS4XWG5tdP5nTzb/xbHeiIx20NdVfIijG8WxBFMtzvxR1VOr4n/o9Z5y2OfLrLdLqYxVkQAJBqojoL/XRP/7Vz9k93xt7JsG23gZ5Uxf51hvZkfdTMz8oTb/KjAlu4g/9mYeCaVZpj6XIFto0X/dK++3aGG12PgSz8vdMX8eMYJ+N0dQujgwYOFhYWZmZmTk5OJiYmnT5+Oj48fHR11Op0YY7fb3d3dbZrmwMAAe9dP/C/SAUhNTc3MzMzPz7948WJWVpZ4i9PR0eF2uymlp0+fzsnJ0TSto6MjJSVleHi4rKzM4/GUl5cPDw9v2rRpaGjIMIykpCRuOScnZ2RkxOPxDA8Pm6ZJKT1+/HhVVdX58+crKyu9Xm9NTc3g4GBRUdHo6Kiqqggh8bgIAMjPzz9z5ozNZsMIImRgolEQUx6n/3h71L9Xrv+fmrTRjfr6CDhdQg+uM39QhCmN3BoX8cvyyBSL/klFVJEN2kz06wNJFYmGBShQJdkW/HGOpqpkhwPfL7d5rNofyqLW2Rwb7OYf6+yVyRSBaITUVxLxD/ds1CJQvQv/psx5Od3x3eIYO7WlRdv+2ETak8CfKm1dLv3f9kd9Ky+y12Ve8KrRqvrpLuLWtSc94T7jHvC0zUsfuDJEBQMPHTpUUFBgGEZdXZ3P5xsZGXG5XGfPnrXb7QihTZs2dXZ2RkRE9PX18ac1hJDNZhsaGmpoaNi9e/e5c+e2bdvGbwgRQj6fLz4+3jTN0dHRnJwcXdc7OzszMjIGBwfr6+uLi4tLS0tLSko8Hk93d7eqqsnJyX19fQihrVu3njt3zu12Dw0NWSwWTdN8Pl9FRcXY2FhdXd2ePXt4wry8vHPnzvGS8CoAAAgh+/fvLywsZG90EYqASEewwmlpTbWaREu24qp1+m/KUraZ6g8Lo1pd5GomtUAaT+Df741JNfVPdmsJOjCR+rsqoyLOZPeYwNxqt8wWGYSg4rjIX+6N8drB7XJLrAYTkf2fq1MOJeka0AlS966D09sYUSuS0OIr1uvZ8BvbndHQSLFo/1JNyp3kt7XJnxRYjmxEf1fk+IfipJYENRqbX8/To00rXPlO0Str4+erLRm4ArzFSxSEUEtLS35+PufV6Ojo5ORkXFzcqVOntm/f7nA4WlpampubDcMYGBjgnEQIuVyuiYkJt9vt8XgmJye3b9/OGUgI6ezsTEhIMAxjcHAwOzubUtrV1eVyubq7u/ft2xcXF1dSUtLQ0ODxeE6ePEkpdblc/f39mqZt27ZtdHR069atb7/9dnp6ekpKytDQUFpa2sDAwP79+2NjY6urq+vr671e7/nz53n5eab8PW1GRobL5WKchAhBaiJY5NQW90V7nPpWEx1IVO+VJ2bb0Ex+ZE2ydrcqIsuO+tzabytjNhn6PxbaYyixUvUPFVGVMQbWMCF0qw3/otyxw0omtkUtVMVsi9T+8Er0zgRUE2f+viEh14EgpATS3UnwWzsiVYpq47Tf7Hb0p5BflMRvcdBDCfq/7nPEUXi9KOJPNcZGi/nhbtt/1Vk3mqqF4EG3FmkJMxco70JXQECFP7bxfsw9EoSQEJKbm9va2upwOFJTU3t6egYGBvipqqqHDx+urq7WNI2/d2lsbOzv729paXn11VcbGxsNw1AUhRBSVVXldDo1TTtw4IDb7SaEVFZWbtiwISEh4dixY729vceOHYuPj3e5XLW1tZqmRUdH19fXE0I2bdrU1NS0fv36jo6O9vb2gYGB/3+YRAglJia2trb29/cfOXIkKipq8+bNjY2NxP/HfSD2/5WWlm7fvp29VlUwwOxW2YD4xJaY26X2xWL7j3baDyeQbSaZyHDGGLg/S/te/rrpXLpYas016HB+yjqVmARcKdqYHWVgBAlUkwn40o6kn5REXM+P+ItcuFNHf9qf9PMi24fFicOp1IQIqGwuQKETn0l1GAhlOeg7uevWUfTVTOuPSxPm9qTsS9AoRKVx9FJeSgKmbRsdX/JG2VVoanAs25Vu4T5jJc32cutKH7iC9uFg8QEASikhhL+Y4QMSnJ9czocBAQCapvGnLx6LMdZ1nTNB0zQuFMPinM/8lOfC7xUppfzhDSEkLHNXxolECOF3mNwmt8CzFgl1XVcUhb99FVN5xJMhUTAb6UZssMEOQISB4zBkHosYKjKs2JFnqt/Jthc7UW+a/kmxI5niCAitAEGKYgGgkA0mKlClUIlDwI6Ihk2bDtwR9Cf7HKkatGnsAZSN9StYRYRAYGNzB7AK1SjmfgmlKAmjROif/0YggTAaQISBFYEoCBDSEcDRCGgA+j9XW0GrveSqkoEraKDAEXnuCTkDeY8PopN43ArVFOwK0uFDfPw3KIrzTUSJO0muJjgcmIqzV5SNF4+3twjzV0EAsBmgwM9AgBWCFYioDjAFrO+rAGoAOCmcTIv4bpHtb/NjSmIYIxCmSLEAasFQBYDwGaWMyEhBCCNgWgBYbxjns8w4lRiQUsAmuEE261RlszuJQhRdVTSEgJ+MRIemBlSI2NA/BqoOKEAIEAgoYL4ZGkADgKhAYaORYfMnGbiCpgzq37wf8zko/FeQkPds0fv5DEyenJNWmOJz1kQz8NIIy0HywFNObEHvQFJxXyqi2Didf164yDQowGe5sHk0CLJpl1DBbJooQgACNhcNAmzYIaUYmtikFGsEKERBGGAFAYiBAolCqYIo+44aAEgAVAhQCVYxsDgIhoRZZD4WQgVDdkMOFcYkyAYnVJYCKkjBgF0GFFUjbH6cgoCiKozXbO0HfwyB/KlJjNivoO1eWlXRpnJe6JPbKLAfC6pwRvH7OuESOazcU3GPx9PyVDw2KL8gBc6owJEDzigu4RQSrOPTrIPMBjKQk5CnEvkGGiEYAYVxgBMFUIV5NTYFRlEgBIhA9rrUNBUrVCHCBvOXiBEOKwpBGPonbkPA/BdUECCMboAoFCkEAQohYYxi/MPQAhEFisJoqrF5phgiHVLmOBVMFaIpiKVF7BsMqiiIMG32xQZSND8tn++HGQKtZxXgrcbboqa5YOKab2yqbfxq2/jV9vGr7WNTbaGHEioKlIxf841fazl5rpldAcNu+oLo5dzLCfoJHANZGkQqocMbU2gKLxqkENrmXEF4yMDcuTXuUUMVgpwwVxYEZmb964BghX+fxOaIIkVDioYVQICmKQaAisFmIygqAKopNxomAAADM0lEQVSiQQWzE+RnLCSA+CeLYiZkImShzEuq7KMnxWDuDLHPLoCf0f7JpQgpfsfHvi1RGc8ZezFjF2L/IMAKxBaFqIDRkHUkNmucec1QWNa0RDS69IFruh1l4dcqApKBa7XlZLnDAwHJwPBoR1mLtYqAZOBabTlZ7vBAQDIwPNpR1mKtIiAZuFZbTpY7PBCQDAyPdpS1WKsISAau1ZaT5Q4PBCQDw6MdZS3WKgKSgWu15WS5wwMBycDwaEdZi7WKgGTgWm05We7wQEAyMDzaUdZirSIgGbhWW06WOzwQkAwMj3aUtVirCEgGrtWWk+UODwQkA8OjHWUt1ioCkoFrteVkucMDAcnA8GhHWYu1ioBk4FptOVnu8EDg6TPw4jXfxanDA6P+lZrYvsjyTyIgEXgCAv6F7UBNc4FYIk0EApdB4+EnrJX2+pd9Y9eOn7xwgGgIsrVZkTwkAhKBZRHw7wrMtkfFpKa5cGyqbeKa7+KV46tn4MVrHZNf8Y1ebqlr2VHbtKv2QCE7mv2/PLycZDl5UNrmz1p7fGxg1lwzVF+UKshyUHmWjA3UCbIszAaWYUn90IRCwgPiNNBmoCkhD9J8TJlF8tAkwhov+RMVhP6SmkIoAqH6PCpIIehUpBJ4LqcQWOsldZYUcvs8SiiIgIgNlYiCBeYr9EVsaOCRqVeaCuqaC+sP7jwxUs8Z6F8ydLXrhb5+pe3i1WPn32kZmzo+PuWbuHJ0lcfUahM+MUduOch+0Ck3sqTwc9oXaksa4cIlo0TCJwYekzwoKuj0iZavHJ1YRZLPY3ZFOk+xDEGmgk5XVKogZW7q8xh8jM7U0cmp1rGpY5yBfK3eVa7Ye3Hq6Ni1tvEv+87/Zev4ux1jVzrlIRGQCDwRgYtXOsavdnDv92jl7FWumX3k4tXjF6d8F652nL/aNnbtqDwkAhKB5RAYv9Y6fq2Vx05cY2vUiyfAVfrA0Fc3UiIRkAg8RQSe8C70KeYkTUkEJAKhCEgGLrGdTShMUiIReEYISAZKBkoEXiQCkoEvEv1ndFmVZtcQApKBkoESgReJgGTgi0R/DV2qZVGfEQKSgZKBEoEXicD/AbvItrZY5SbYAAAAAElFTkSuQmCC;" vertex="1" parent="1">
          <mxGeometry x="120" y="490" width="299" height="270" as="geometry" />
        </mxCell>
      </root>
    </mxGraphModel>
  </diagram>
</mxfile>
